G04 #@! TF.FileFunction,Legend,Bot*
%FSLAX46Y46*%
G04 Gerber Fmt 4.6, Leading zero omitted, Abs format (unit mm)*
G04 Created by KiCad (PCBNEW (2015-01-16 BZR 5376)-product) date 13/04/2015 08:52:01*
%MOMM*%
G01*
G04 APERTURE LIST*
%ADD10C,0.100000*%
%ADD11C,0.300000*%
G04 APERTURE END LIST*
D10*
D11*
X97142857Y-64178571D02*
X97142857Y-62678571D01*
X96785714Y-62678571D01*
X96571429Y-62750000D01*
X96428571Y-62892857D01*
X96357143Y-63035714D01*
X96285714Y-63321429D01*
X96285714Y-63535714D01*
X96357143Y-63821429D01*
X96428571Y-63964286D01*
X96571429Y-64107143D01*
X96785714Y-64178571D01*
X97142857Y-64178571D01*
X95000000Y-64178571D02*
X95000000Y-63392857D01*
X95071429Y-63250000D01*
X95214286Y-63178571D01*
X95500000Y-63178571D01*
X95642857Y-63250000D01*
X95000000Y-64107143D02*
X95142857Y-64178571D01*
X95500000Y-64178571D01*
X95642857Y-64107143D01*
X95714286Y-63964286D01*
X95714286Y-63821429D01*
X95642857Y-63678571D01*
X95500000Y-63607143D01*
X95142857Y-63607143D01*
X95000000Y-63535714D01*
X94428571Y-63178571D02*
X94071428Y-64178571D01*
X93714286Y-63178571D01*
X93142857Y-64178571D02*
X93142857Y-63178571D01*
X93142857Y-62678571D02*
X93214286Y-62750000D01*
X93142857Y-62821429D01*
X93071429Y-62750000D01*
X93142857Y-62678571D01*
X93142857Y-62821429D01*
X91785714Y-64178571D02*
X91785714Y-62678571D01*
X91785714Y-64107143D02*
X91928571Y-64178571D01*
X92214285Y-64178571D01*
X92357143Y-64107143D01*
X92428571Y-64035714D01*
X92500000Y-63892857D01*
X92500000Y-63464286D01*
X92428571Y-63321429D01*
X92357143Y-63250000D01*
X92214285Y-63178571D01*
X91928571Y-63178571D01*
X91785714Y-63250000D01*
X90000000Y-64107143D02*
X89785714Y-64178571D01*
X89428571Y-64178571D01*
X89285714Y-64107143D01*
X89214285Y-64035714D01*
X89142857Y-63892857D01*
X89142857Y-63750000D01*
X89214285Y-63607143D01*
X89285714Y-63535714D01*
X89428571Y-63464286D01*
X89714285Y-63392857D01*
X89857143Y-63321429D01*
X89928571Y-63250000D01*
X90000000Y-63107143D01*
X90000000Y-62964286D01*
X89928571Y-62821429D01*
X89857143Y-62750000D01*
X89714285Y-62678571D01*
X89357143Y-62678571D01*
X89142857Y-62750000D01*
X88500000Y-64178571D02*
X88500000Y-62678571D01*
X87857143Y-64178571D02*
X87857143Y-63392857D01*
X87928572Y-63250000D01*
X88071429Y-63178571D01*
X88285714Y-63178571D01*
X88428572Y-63250000D01*
X88500000Y-63321429D01*
X86500000Y-64178571D02*
X86500000Y-63392857D01*
X86571429Y-63250000D01*
X86714286Y-63178571D01*
X87000000Y-63178571D01*
X87142857Y-63250000D01*
X86500000Y-64107143D02*
X86642857Y-64178571D01*
X87000000Y-64178571D01*
X87142857Y-64107143D01*
X87214286Y-63964286D01*
X87214286Y-63821429D01*
X87142857Y-63678571D01*
X87000000Y-63607143D01*
X86642857Y-63607143D01*
X86500000Y-63535714D01*
X85785714Y-64178571D02*
X85785714Y-62678571D01*
X85142857Y-64178571D02*
X85142857Y-63392857D01*
X85214286Y-63250000D01*
X85357143Y-63178571D01*
X85571428Y-63178571D01*
X85714286Y-63250000D01*
X85785714Y-63321429D01*
X97142857Y-48178571D02*
X97142857Y-46678571D01*
X96571429Y-46678571D01*
X96428571Y-46750000D01*
X96357143Y-46821429D01*
X96285714Y-46964286D01*
X96285714Y-47178571D01*
X96357143Y-47321429D01*
X96428571Y-47392857D01*
X96571429Y-47464286D01*
X97142857Y-47464286D01*
X95642857Y-48178571D02*
X95642857Y-46678571D01*
X95000000Y-48178571D02*
X95000000Y-47392857D01*
X95071429Y-47250000D01*
X95214286Y-47178571D01*
X95428571Y-47178571D01*
X95571429Y-47250000D01*
X95642857Y-47321429D01*
X94071428Y-48178571D02*
X94214286Y-48107143D01*
X94285714Y-48035714D01*
X94357143Y-47892857D01*
X94357143Y-47464286D01*
X94285714Y-47321429D01*
X94214286Y-47250000D01*
X94071428Y-47178571D01*
X93857143Y-47178571D01*
X93714286Y-47250000D01*
X93642857Y-47321429D01*
X93571428Y-47464286D01*
X93571428Y-47892857D01*
X93642857Y-48035714D01*
X93714286Y-48107143D01*
X93857143Y-48178571D01*
X94071428Y-48178571D01*
X93142857Y-47178571D02*
X92571428Y-47178571D01*
X92928571Y-46678571D02*
X92928571Y-47964286D01*
X92857143Y-48107143D01*
X92714285Y-48178571D01*
X92571428Y-48178571D01*
X91857142Y-48178571D02*
X92000000Y-48107143D01*
X92071428Y-48035714D01*
X92142857Y-47892857D01*
X92142857Y-47464286D01*
X92071428Y-47321429D01*
X92000000Y-47250000D01*
X91857142Y-47178571D01*
X91642857Y-47178571D01*
X91500000Y-47250000D01*
X91428571Y-47321429D01*
X91357142Y-47464286D01*
X91357142Y-47892857D01*
X91428571Y-48035714D01*
X91500000Y-48107143D01*
X91642857Y-48178571D01*
X91857142Y-48178571D01*
X90071428Y-48178571D02*
X90071428Y-46678571D01*
X90071428Y-48107143D02*
X90214285Y-48178571D01*
X90499999Y-48178571D01*
X90642857Y-48107143D01*
X90714285Y-48035714D01*
X90785714Y-47892857D01*
X90785714Y-47464286D01*
X90714285Y-47321429D01*
X90642857Y-47250000D01*
X90499999Y-47178571D01*
X90214285Y-47178571D01*
X90071428Y-47250000D01*
X89357142Y-48178571D02*
X89357142Y-47178571D01*
X89357142Y-46678571D02*
X89428571Y-46750000D01*
X89357142Y-46821429D01*
X89285714Y-46750000D01*
X89357142Y-46678571D01*
X89357142Y-46821429D01*
X88428570Y-48178571D02*
X88571428Y-48107143D01*
X88642856Y-48035714D01*
X88714285Y-47892857D01*
X88714285Y-47464286D01*
X88642856Y-47321429D01*
X88571428Y-47250000D01*
X88428570Y-47178571D01*
X88214285Y-47178571D01*
X88071428Y-47250000D01*
X87999999Y-47321429D01*
X87928570Y-47464286D01*
X87928570Y-47892857D01*
X87999999Y-48035714D01*
X88071428Y-48107143D01*
X88214285Y-48178571D01*
X88428570Y-48178571D01*
X86642856Y-48178571D02*
X86642856Y-46678571D01*
X86642856Y-48107143D02*
X86785713Y-48178571D01*
X87071427Y-48178571D01*
X87214285Y-48107143D01*
X87285713Y-48035714D01*
X87357142Y-47892857D01*
X87357142Y-47464286D01*
X87285713Y-47321429D01*
X87214285Y-47250000D01*
X87071427Y-47178571D01*
X86785713Y-47178571D01*
X86642856Y-47250000D01*
X85357142Y-48107143D02*
X85499999Y-48178571D01*
X85785713Y-48178571D01*
X85928570Y-48107143D01*
X85999999Y-47964286D01*
X85999999Y-47392857D01*
X85928570Y-47250000D01*
X85785713Y-47178571D01*
X85499999Y-47178571D01*
X85357142Y-47250000D01*
X85285713Y-47392857D01*
X85285713Y-47535714D01*
X85999999Y-47678571D01*
X83499999Y-48178571D02*
X83499999Y-46678571D01*
X83142856Y-46678571D01*
X82928571Y-46750000D01*
X82785713Y-46892857D01*
X82714285Y-47035714D01*
X82642856Y-47321429D01*
X82642856Y-47535714D01*
X82714285Y-47821429D01*
X82785713Y-47964286D01*
X82928571Y-48107143D01*
X83142856Y-48178571D01*
X83499999Y-48178571D01*
X81428571Y-48107143D02*
X81571428Y-48178571D01*
X81857142Y-48178571D01*
X81999999Y-48107143D01*
X82071428Y-47964286D01*
X82071428Y-47392857D01*
X81999999Y-47250000D01*
X81857142Y-47178571D01*
X81571428Y-47178571D01*
X81428571Y-47250000D01*
X81357142Y-47392857D01*
X81357142Y-47535714D01*
X82071428Y-47678571D01*
X80928571Y-47178571D02*
X80357142Y-47178571D01*
X80714285Y-46678571D02*
X80714285Y-47964286D01*
X80642857Y-48107143D01*
X80499999Y-48178571D01*
X80357142Y-48178571D01*
X79285714Y-48107143D02*
X79428571Y-48178571D01*
X79714285Y-48178571D01*
X79857142Y-48107143D01*
X79928571Y-47964286D01*
X79928571Y-47392857D01*
X79857142Y-47250000D01*
X79714285Y-47178571D01*
X79428571Y-47178571D01*
X79285714Y-47250000D01*
X79214285Y-47392857D01*
X79214285Y-47535714D01*
X79928571Y-47678571D01*
X77928571Y-48107143D02*
X78071428Y-48178571D01*
X78357142Y-48178571D01*
X78500000Y-48107143D01*
X78571428Y-48035714D01*
X78642857Y-47892857D01*
X78642857Y-47464286D01*
X78571428Y-47321429D01*
X78500000Y-47250000D01*
X78357142Y-47178571D01*
X78071428Y-47178571D01*
X77928571Y-47250000D01*
X77500000Y-47178571D02*
X76928571Y-47178571D01*
X77285714Y-46678571D02*
X77285714Y-47964286D01*
X77214286Y-48107143D01*
X77071428Y-48178571D01*
X76928571Y-48178571D01*
X76214285Y-48178571D02*
X76357143Y-48107143D01*
X76428571Y-48035714D01*
X76500000Y-47892857D01*
X76500000Y-47464286D01*
X76428571Y-47321429D01*
X76357143Y-47250000D01*
X76214285Y-47178571D01*
X76000000Y-47178571D01*
X75857143Y-47250000D01*
X75785714Y-47321429D01*
X75714285Y-47464286D01*
X75714285Y-47892857D01*
X75785714Y-48035714D01*
X75857143Y-48107143D01*
X76000000Y-48178571D01*
X76214285Y-48178571D01*
X75071428Y-48178571D02*
X75071428Y-47178571D01*
X75071428Y-47464286D02*
X75000000Y-47321429D01*
X74928571Y-47250000D01*
X74785714Y-47178571D01*
X74642857Y-47178571D01*
X59214285Y-57892857D02*
X58999999Y-57964286D01*
X58928571Y-58035714D01*
X58857142Y-58178571D01*
X58857142Y-58392857D01*
X58928571Y-58535714D01*
X58999999Y-58607143D01*
X59142857Y-58678571D01*
X59714285Y-58678571D01*
X59714285Y-57178571D01*
X59214285Y-57178571D01*
X59071428Y-57250000D01*
X58999999Y-57321429D01*
X58928571Y-57464286D01*
X58928571Y-57607143D01*
X58999999Y-57750000D01*
X59071428Y-57821429D01*
X59214285Y-57892857D01*
X59714285Y-57892857D01*
X58285714Y-58250000D02*
X57571428Y-58250000D01*
X58428571Y-58678571D02*
X57928571Y-57178571D01*
X57428571Y-58678571D01*
X57142857Y-57178571D02*
X56285714Y-57178571D01*
X56714285Y-58678571D02*
X56714285Y-57178571D01*
X56000000Y-57178571D02*
X55142857Y-57178571D01*
X55571428Y-58678571D02*
X55571428Y-57178571D01*
X58357143Y-56107143D02*
X58142857Y-56178571D01*
X57785714Y-56178571D01*
X57642857Y-56107143D01*
X57571428Y-56035714D01*
X57500000Y-55892857D01*
X57500000Y-55750000D01*
X57571428Y-55607143D01*
X57642857Y-55535714D01*
X57785714Y-55464286D01*
X58071428Y-55392857D01*
X58214286Y-55321429D01*
X58285714Y-55250000D01*
X58357143Y-55107143D01*
X58357143Y-54964286D01*
X58285714Y-54821429D01*
X58214286Y-54750000D01*
X58071428Y-54678571D01*
X57714286Y-54678571D01*
X57500000Y-54750000D01*
X56857143Y-56178571D02*
X56857143Y-54678571D01*
X55357143Y-54750000D02*
X55500000Y-54678571D01*
X55714286Y-54678571D01*
X55928571Y-54750000D01*
X56071429Y-54892857D01*
X56142857Y-55035714D01*
X56214286Y-55321429D01*
X56214286Y-55535714D01*
X56142857Y-55821429D01*
X56071429Y-55964286D01*
X55928571Y-56107143D01*
X55714286Y-56178571D01*
X55571429Y-56178571D01*
X55357143Y-56107143D01*
X55285714Y-56035714D01*
X55285714Y-55535714D01*
X55571429Y-55535714D01*
X58428572Y-52250000D02*
X58571429Y-52178571D01*
X58785715Y-52178571D01*
X59000000Y-52250000D01*
X59142858Y-52392857D01*
X59214286Y-52535714D01*
X59285715Y-52821429D01*
X59285715Y-53035714D01*
X59214286Y-53321429D01*
X59142858Y-53464286D01*
X59000000Y-53607143D01*
X58785715Y-53678571D01*
X58642858Y-53678571D01*
X58428572Y-53607143D01*
X58357143Y-53535714D01*
X58357143Y-53035714D01*
X58642858Y-53035714D01*
X57714286Y-53678571D02*
X57714286Y-52178571D01*
X56857143Y-53678571D01*
X56857143Y-52178571D01*
X56142857Y-53678571D02*
X56142857Y-52178571D01*
X55785714Y-52178571D01*
X55571429Y-52250000D01*
X55428571Y-52392857D01*
X55357143Y-52535714D01*
X55285714Y-52821429D01*
X55285714Y-53035714D01*
X55357143Y-53321429D01*
X55428571Y-53464286D01*
X55571429Y-53607143D01*
X55785714Y-53678571D01*
X56142857Y-53678571D01*
M02*
