G04 #@! TF.FileFunction,Legend,Top*
%FSLAX46Y46*%
G04 Gerber Fmt 4.6, Leading zero omitted, Abs format (unit mm)*
G04 Created by KiCad (PCBNEW (2015-01-16 BZR 5376)-product) date 13/04/2015 08:52:01*
%MOMM*%
G01*
G04 APERTURE LIST*
%ADD10C,0.100000*%
%ADD11C,0.150000*%
G04 APERTURE END LIST*
D10*
D11*
X73100080Y-61784100D02*
X73699520Y-61784100D01*
X73399800Y-62083820D02*
X73399800Y-61484380D01*
X77499360Y-60984000D02*
G75*
G03X77499360Y-60984000I-2499360J0D01*
G01*
X66500000Y-49850000D02*
X67500000Y-49850000D01*
X67500000Y-48150000D02*
X66500000Y-48150000D01*
X63500000Y-48150000D02*
X62500000Y-48150000D01*
X62500000Y-49850000D02*
X63500000Y-49850000D01*
X84650240Y-56299160D02*
X84650240Y-56250900D01*
X83949200Y-53500180D02*
X84650240Y-53500180D01*
X84650240Y-53500180D02*
X84650240Y-53749100D01*
X84650240Y-56299160D02*
X84650240Y-56499820D01*
X84650240Y-56499820D02*
X83949200Y-56499820D01*
X67075000Y-56575000D02*
X67075000Y-56430000D01*
X62925000Y-56575000D02*
X62925000Y-56430000D01*
X62925000Y-51425000D02*
X62925000Y-51570000D01*
X67075000Y-51425000D02*
X67075000Y-51570000D01*
X67075000Y-56575000D02*
X62925000Y-56575000D01*
X67075000Y-51425000D02*
X62925000Y-51425000D01*
X67075000Y-56430000D02*
X68475000Y-56430000D01*
X87500000Y-60150000D02*
X86500000Y-60150000D01*
X86500000Y-61850000D02*
X87500000Y-61850000D01*
X61100080Y-61784100D02*
X61699520Y-61784100D01*
X61399800Y-62083820D02*
X61399800Y-61484380D01*
X65499360Y-60984000D02*
G75*
G03X65499360Y-60984000I-2499360J0D01*
G01*
X87600000Y-49875000D02*
X86400000Y-49875000D01*
X86400000Y-48125000D02*
X87600000Y-48125000D01*
X83600000Y-49875000D02*
X82400000Y-49875000D01*
X82400000Y-48125000D02*
X83600000Y-48125000D01*
X92730000Y-56016000D02*
X95270000Y-56016000D01*
X95270000Y-56016000D02*
X95270000Y-56143000D01*
X95270000Y-56143000D02*
X92730000Y-56143000D01*
X92730000Y-55889000D02*
X95270000Y-55889000D01*
X95270000Y-56270000D02*
X92730000Y-56270000D01*
X92730000Y-56270000D02*
X92730000Y-51190000D01*
X92730000Y-51190000D02*
X95270000Y-51190000D01*
X95270000Y-51190000D02*
X95270000Y-56270000D01*
X91000000Y-51250000D02*
X90000000Y-50250000D01*
X90000000Y-50250000D02*
X89250000Y-51000000D01*
X89250000Y-51000000D02*
X90250000Y-52000000D01*
X98750000Y-55000000D02*
G75*
G03X98750000Y-55000000I-4750000J0D01*
G01*
X91850000Y-52675000D02*
X91850000Y-57325000D01*
X91850000Y-52675000D02*
X96150000Y-52675000D01*
X96150000Y-52675000D02*
X96150000Y-57325000D01*
X96150000Y-57325000D02*
X91875000Y-57325000D01*
X71675000Y-55500000D02*
X71675000Y-56500000D01*
X70325000Y-56500000D02*
X70325000Y-55500000D01*
X57675000Y-54500000D02*
X57675000Y-55500000D01*
X56325000Y-55500000D02*
X56325000Y-54500000D01*
X83000000Y-61675000D02*
X82000000Y-61675000D01*
X82000000Y-60325000D02*
X83000000Y-60325000D01*
X74825000Y-51500000D02*
X74825000Y-50500000D01*
X76175000Y-50500000D02*
X76175000Y-51500000D01*
X68500000Y-62675000D02*
X67500000Y-62675000D01*
X67500000Y-61325000D02*
X68500000Y-61325000D01*
X74675000Y-55500000D02*
X74675000Y-56500000D01*
X73325000Y-56500000D02*
X73325000Y-55500000D01*
X71675000Y-50500000D02*
X71675000Y-51500000D01*
X70325000Y-51500000D02*
X70325000Y-50500000D01*
X60175000Y-54500000D02*
X60175000Y-55500000D01*
X58825000Y-55500000D02*
X58825000Y-54500000D01*
X59675000Y-50500000D02*
X59675000Y-51500000D01*
X58325000Y-51500000D02*
X58325000Y-50500000D01*
X58500000Y-61675000D02*
X57500000Y-61675000D01*
X57500000Y-60325000D02*
X58500000Y-60325000D01*
X80898026Y-57194077D02*
X80898026Y-51805923D01*
X80898026Y-51805923D02*
X80000000Y-50907898D01*
X80000000Y-50907898D02*
X78203949Y-50907898D01*
X78203949Y-50907898D02*
X76407898Y-52703949D01*
X76407898Y-52703949D02*
X76407898Y-56296051D01*
X76407898Y-56296051D02*
X78203949Y-58092102D01*
X78203949Y-58092102D02*
X80000000Y-58092102D01*
X80000000Y-58092102D02*
X80898026Y-57194077D01*
X54300000Y-59550000D02*
X54300000Y-58000000D01*
X53000000Y-59550000D02*
X54300000Y-59550000D01*
X48809000Y-58127000D02*
X42967000Y-58127000D01*
X42967000Y-58127000D02*
X42967000Y-57873000D01*
X42967000Y-57873000D02*
X48809000Y-57873000D01*
X48809000Y-57873000D02*
X48809000Y-58000000D01*
X48809000Y-58000000D02*
X42967000Y-58000000D01*
X51476000Y-58254000D02*
X51857000Y-58254000D01*
X51476000Y-57746000D02*
X51857000Y-57746000D01*
X51476000Y-55714000D02*
X51857000Y-55714000D01*
X51476000Y-55206000D02*
X51857000Y-55206000D01*
X51476000Y-53174000D02*
X51857000Y-53174000D01*
X51476000Y-52666000D02*
X51857000Y-52666000D01*
X48936000Y-56730000D02*
X48936000Y-59270000D01*
X42840000Y-57746000D02*
X48936000Y-57746000D01*
X42840000Y-58254000D02*
X42840000Y-57746000D01*
X48936000Y-58254000D02*
X42840000Y-58254000D01*
X51476000Y-56730000D02*
X48936000Y-56730000D01*
X51476000Y-59270000D02*
X51476000Y-56730000D01*
X51476000Y-59270000D02*
X48936000Y-59270000D01*
X51476000Y-54190000D02*
X48936000Y-54190000D01*
X51476000Y-54190000D02*
X51476000Y-51650000D01*
X48936000Y-53174000D02*
X42840000Y-53174000D01*
X42840000Y-53174000D02*
X42840000Y-52666000D01*
X42840000Y-52666000D02*
X48936000Y-52666000D01*
X48936000Y-51650000D02*
X48936000Y-54190000D01*
X48936000Y-54190000D02*
X48936000Y-56730000D01*
X42840000Y-55206000D02*
X48936000Y-55206000D01*
X42840000Y-55714000D02*
X42840000Y-55206000D01*
X48936000Y-55714000D02*
X42840000Y-55714000D01*
X51476000Y-54190000D02*
X48936000Y-54190000D01*
X51476000Y-56730000D02*
X51476000Y-54190000D01*
X51476000Y-56730000D02*
X48936000Y-56730000D01*
X51476000Y-51650000D02*
X48936000Y-51650000D01*
X76833334Y-64357143D02*
X76785715Y-64404762D01*
X76642858Y-64452381D01*
X76547620Y-64452381D01*
X76404762Y-64404762D01*
X76309524Y-64309524D01*
X76261905Y-64214286D01*
X76214286Y-64023810D01*
X76214286Y-63880952D01*
X76261905Y-63690476D01*
X76309524Y-63595238D01*
X76404762Y-63500000D01*
X76547620Y-63452381D01*
X76642858Y-63452381D01*
X76785715Y-63500000D01*
X76833334Y-63547619D01*
X77214286Y-63547619D02*
X77261905Y-63500000D01*
X77357143Y-63452381D01*
X77595239Y-63452381D01*
X77690477Y-63500000D01*
X77738096Y-63547619D01*
X77785715Y-63642857D01*
X77785715Y-63738095D01*
X77738096Y-63880952D01*
X77166667Y-64452381D01*
X77785715Y-64452381D01*
X66833334Y-47357143D02*
X66785715Y-47404762D01*
X66642858Y-47452381D01*
X66547620Y-47452381D01*
X66404762Y-47404762D01*
X66309524Y-47309524D01*
X66261905Y-47214286D01*
X66214286Y-47023810D01*
X66214286Y-46880952D01*
X66261905Y-46690476D01*
X66309524Y-46595238D01*
X66404762Y-46500000D01*
X66547620Y-46452381D01*
X66642858Y-46452381D01*
X66785715Y-46500000D01*
X66833334Y-46547619D01*
X67166667Y-46452381D02*
X67785715Y-46452381D01*
X67452381Y-46833333D01*
X67595239Y-46833333D01*
X67690477Y-46880952D01*
X67738096Y-46928571D01*
X67785715Y-47023810D01*
X67785715Y-47261905D01*
X67738096Y-47357143D01*
X67690477Y-47404762D01*
X67595239Y-47452381D01*
X67309524Y-47452381D01*
X67214286Y-47404762D01*
X67166667Y-47357143D01*
X62833334Y-47257143D02*
X62785715Y-47304762D01*
X62642858Y-47352381D01*
X62547620Y-47352381D01*
X62404762Y-47304762D01*
X62309524Y-47209524D01*
X62261905Y-47114286D01*
X62214286Y-46923810D01*
X62214286Y-46780952D01*
X62261905Y-46590476D01*
X62309524Y-46495238D01*
X62404762Y-46400000D01*
X62547620Y-46352381D01*
X62642858Y-46352381D01*
X62785715Y-46400000D01*
X62833334Y-46447619D01*
X63690477Y-46352381D02*
X63500000Y-46352381D01*
X63404762Y-46400000D01*
X63357143Y-46447619D01*
X63261905Y-46590476D01*
X63214286Y-46780952D01*
X63214286Y-47161905D01*
X63261905Y-47257143D01*
X63309524Y-47304762D01*
X63404762Y-47352381D01*
X63595239Y-47352381D01*
X63690477Y-47304762D01*
X63738096Y-47257143D01*
X63785715Y-47161905D01*
X63785715Y-46923810D01*
X63738096Y-46828571D01*
X63690477Y-46780952D01*
X63595239Y-46733333D01*
X63404762Y-46733333D01*
X63309524Y-46780952D01*
X63261905Y-46828571D01*
X63214286Y-46923810D01*
X83404762Y-53047619D02*
X83309524Y-53000000D01*
X83214286Y-52904762D01*
X83071429Y-52761905D01*
X82976190Y-52714286D01*
X82880952Y-52714286D01*
X82928571Y-52952381D02*
X82833333Y-52904762D01*
X82738095Y-52809524D01*
X82690476Y-52619048D01*
X82690476Y-52285714D01*
X82738095Y-52095238D01*
X82833333Y-52000000D01*
X82928571Y-51952381D01*
X83119048Y-51952381D01*
X83214286Y-52000000D01*
X83309524Y-52095238D01*
X83357143Y-52285714D01*
X83357143Y-52619048D01*
X83309524Y-52809524D01*
X83214286Y-52904762D01*
X83119048Y-52952381D01*
X82928571Y-52952381D01*
X84309524Y-52952381D02*
X83738095Y-52952381D01*
X84023809Y-52952381D02*
X84023809Y-51952381D01*
X83928571Y-52095238D01*
X83833333Y-52190476D01*
X83738095Y-52238095D01*
X64238095Y-56952381D02*
X64238095Y-57761905D01*
X64285714Y-57857143D01*
X64333333Y-57904762D01*
X64428571Y-57952381D01*
X64619048Y-57952381D01*
X64714286Y-57904762D01*
X64761905Y-57857143D01*
X64809524Y-57761905D01*
X64809524Y-56952381D01*
X65809524Y-57952381D02*
X65238095Y-57952381D01*
X65523809Y-57952381D02*
X65523809Y-56952381D01*
X65428571Y-57095238D01*
X65333333Y-57190476D01*
X65238095Y-57238095D01*
X86833334Y-59357143D02*
X86785715Y-59404762D01*
X86642858Y-59452381D01*
X86547620Y-59452381D01*
X86404762Y-59404762D01*
X86309524Y-59309524D01*
X86261905Y-59214286D01*
X86214286Y-59023810D01*
X86214286Y-58880952D01*
X86261905Y-58690476D01*
X86309524Y-58595238D01*
X86404762Y-58500000D01*
X86547620Y-58452381D01*
X86642858Y-58452381D01*
X86785715Y-58500000D01*
X86833334Y-58547619D01*
X87785715Y-59452381D02*
X87214286Y-59452381D01*
X87500000Y-59452381D02*
X87500000Y-58452381D01*
X87404762Y-58595238D01*
X87309524Y-58690476D01*
X87214286Y-58738095D01*
X64833334Y-64357143D02*
X64785715Y-64404762D01*
X64642858Y-64452381D01*
X64547620Y-64452381D01*
X64404762Y-64404762D01*
X64309524Y-64309524D01*
X64261905Y-64214286D01*
X64214286Y-64023810D01*
X64214286Y-63880952D01*
X64261905Y-63690476D01*
X64309524Y-63595238D01*
X64404762Y-63500000D01*
X64547620Y-63452381D01*
X64642858Y-63452381D01*
X64785715Y-63500000D01*
X64833334Y-63547619D01*
X65738096Y-63452381D02*
X65261905Y-63452381D01*
X65214286Y-63928571D01*
X65261905Y-63880952D01*
X65357143Y-63833333D01*
X65595239Y-63833333D01*
X65690477Y-63880952D01*
X65738096Y-63928571D01*
X65785715Y-64023810D01*
X65785715Y-64261905D01*
X65738096Y-64357143D01*
X65690477Y-64404762D01*
X65595239Y-64452381D01*
X65357143Y-64452381D01*
X65261905Y-64404762D01*
X65214286Y-64357143D01*
X86833334Y-47352381D02*
X86500000Y-46876190D01*
X86261905Y-47352381D02*
X86261905Y-46352381D01*
X86642858Y-46352381D01*
X86738096Y-46400000D01*
X86785715Y-46447619D01*
X86833334Y-46542857D01*
X86833334Y-46685714D01*
X86785715Y-46780952D01*
X86738096Y-46828571D01*
X86642858Y-46876190D01*
X86261905Y-46876190D01*
X87785715Y-47352381D02*
X87214286Y-47352381D01*
X87500000Y-47352381D02*
X87500000Y-46352381D01*
X87404762Y-46495238D01*
X87309524Y-46590476D01*
X87214286Y-46638095D01*
X82833334Y-47352381D02*
X82500000Y-46876190D01*
X82261905Y-47352381D02*
X82261905Y-46352381D01*
X82642858Y-46352381D01*
X82738096Y-46400000D01*
X82785715Y-46447619D01*
X82833334Y-46542857D01*
X82833334Y-46685714D01*
X82785715Y-46780952D01*
X82738096Y-46828571D01*
X82642858Y-46876190D01*
X82261905Y-46876190D01*
X83214286Y-46447619D02*
X83261905Y-46400000D01*
X83357143Y-46352381D01*
X83595239Y-46352381D01*
X83690477Y-46400000D01*
X83738096Y-46447619D01*
X83785715Y-46542857D01*
X83785715Y-46638095D01*
X83738096Y-46780952D01*
X83166667Y-47352381D01*
X83785715Y-47352381D01*
X95261905Y-61452381D02*
X95261905Y-60452381D01*
X95500000Y-60452381D01*
X95642858Y-60500000D01*
X95738096Y-60595238D01*
X95785715Y-60690476D01*
X95833334Y-60880952D01*
X95833334Y-61023810D01*
X95785715Y-61214286D01*
X95738096Y-61309524D01*
X95642858Y-61404762D01*
X95500000Y-61452381D01*
X95261905Y-61452381D01*
X96785715Y-61452381D02*
X96214286Y-61452381D01*
X96500000Y-61452381D02*
X96500000Y-60452381D01*
X96404762Y-60595238D01*
X96309524Y-60690476D01*
X96214286Y-60738095D01*
X90761905Y-49666667D02*
X91238096Y-49666667D01*
X90666667Y-49952381D02*
X91000000Y-48952381D01*
X91333334Y-49952381D01*
X90738095Y-60452381D02*
X90738095Y-59452381D01*
X91309524Y-60452381D02*
X90880952Y-59880952D01*
X91309524Y-59452381D02*
X90738095Y-60023810D01*
X70833334Y-54357143D02*
X70785715Y-54404762D01*
X70642858Y-54452381D01*
X70547620Y-54452381D01*
X70404762Y-54404762D01*
X70309524Y-54309524D01*
X70261905Y-54214286D01*
X70214286Y-54023810D01*
X70214286Y-53880952D01*
X70261905Y-53690476D01*
X70309524Y-53595238D01*
X70404762Y-53500000D01*
X70547620Y-53452381D01*
X70642858Y-53452381D01*
X70785715Y-53500000D01*
X70833334Y-53547619D01*
X71690477Y-53785714D02*
X71690477Y-54452381D01*
X71452381Y-53404762D02*
X71214286Y-54119048D01*
X71833334Y-54119048D01*
X55457143Y-55166666D02*
X55504762Y-55214285D01*
X55552381Y-55357142D01*
X55552381Y-55452380D01*
X55504762Y-55595238D01*
X55409524Y-55690476D01*
X55314286Y-55738095D01*
X55123810Y-55785714D01*
X54980952Y-55785714D01*
X54790476Y-55738095D01*
X54695238Y-55690476D01*
X54600000Y-55595238D01*
X54552381Y-55452380D01*
X54552381Y-55357142D01*
X54600000Y-55214285D01*
X54647619Y-55166666D01*
X54552381Y-54833333D02*
X54552381Y-54166666D01*
X55552381Y-54595238D01*
X82333334Y-59452381D02*
X82000000Y-58976190D01*
X81761905Y-59452381D02*
X81761905Y-58452381D01*
X82142858Y-58452381D01*
X82238096Y-58500000D01*
X82285715Y-58547619D01*
X82333334Y-58642857D01*
X82333334Y-58785714D01*
X82285715Y-58880952D01*
X82238096Y-58928571D01*
X82142858Y-58976190D01*
X81761905Y-58976190D01*
X82666667Y-58452381D02*
X83285715Y-58452381D01*
X82952381Y-58833333D01*
X83095239Y-58833333D01*
X83190477Y-58880952D01*
X83238096Y-58928571D01*
X83285715Y-59023810D01*
X83285715Y-59261905D01*
X83238096Y-59357143D01*
X83190477Y-59404762D01*
X83095239Y-59452381D01*
X82809524Y-59452381D01*
X82714286Y-59404762D01*
X82666667Y-59357143D01*
X75333334Y-53452381D02*
X75000000Y-52976190D01*
X74761905Y-53452381D02*
X74761905Y-52452381D01*
X75142858Y-52452381D01*
X75238096Y-52500000D01*
X75285715Y-52547619D01*
X75333334Y-52642857D01*
X75333334Y-52785714D01*
X75285715Y-52880952D01*
X75238096Y-52928571D01*
X75142858Y-52976190D01*
X74761905Y-52976190D01*
X76190477Y-52785714D02*
X76190477Y-53452381D01*
X75952381Y-52404762D02*
X75714286Y-53119048D01*
X76333334Y-53119048D01*
X67833334Y-60452381D02*
X67500000Y-59976190D01*
X67261905Y-60452381D02*
X67261905Y-59452381D01*
X67642858Y-59452381D01*
X67738096Y-59500000D01*
X67785715Y-59547619D01*
X67833334Y-59642857D01*
X67833334Y-59785714D01*
X67785715Y-59880952D01*
X67738096Y-59928571D01*
X67642858Y-59976190D01*
X67261905Y-59976190D01*
X68738096Y-59452381D02*
X68261905Y-59452381D01*
X68214286Y-59928571D01*
X68261905Y-59880952D01*
X68357143Y-59833333D01*
X68595239Y-59833333D01*
X68690477Y-59880952D01*
X68738096Y-59928571D01*
X68785715Y-60023810D01*
X68785715Y-60261905D01*
X68738096Y-60357143D01*
X68690477Y-60404762D01*
X68595239Y-60452381D01*
X68357143Y-60452381D01*
X68261905Y-60404762D01*
X68214286Y-60357143D01*
X73833334Y-54452381D02*
X73500000Y-53976190D01*
X73261905Y-54452381D02*
X73261905Y-53452381D01*
X73642858Y-53452381D01*
X73738096Y-53500000D01*
X73785715Y-53547619D01*
X73833334Y-53642857D01*
X73833334Y-53785714D01*
X73785715Y-53880952D01*
X73738096Y-53928571D01*
X73642858Y-53976190D01*
X73261905Y-53976190D01*
X74690477Y-53452381D02*
X74500000Y-53452381D01*
X74404762Y-53500000D01*
X74357143Y-53547619D01*
X74261905Y-53690476D01*
X74214286Y-53880952D01*
X74214286Y-54261905D01*
X74261905Y-54357143D01*
X74309524Y-54404762D01*
X74404762Y-54452381D01*
X74595239Y-54452381D01*
X74690477Y-54404762D01*
X74738096Y-54357143D01*
X74785715Y-54261905D01*
X74785715Y-54023810D01*
X74738096Y-53928571D01*
X74690477Y-53880952D01*
X74595239Y-53833333D01*
X74404762Y-53833333D01*
X74309524Y-53880952D01*
X74261905Y-53928571D01*
X74214286Y-54023810D01*
X70833334Y-49452381D02*
X70500000Y-48976190D01*
X70261905Y-49452381D02*
X70261905Y-48452381D01*
X70642858Y-48452381D01*
X70738096Y-48500000D01*
X70785715Y-48547619D01*
X70833334Y-48642857D01*
X70833334Y-48785714D01*
X70785715Y-48880952D01*
X70738096Y-48928571D01*
X70642858Y-48976190D01*
X70261905Y-48976190D01*
X71166667Y-48452381D02*
X71833334Y-48452381D01*
X71404762Y-49452381D01*
X58052381Y-55166666D02*
X57576190Y-55500000D01*
X58052381Y-55738095D02*
X57052381Y-55738095D01*
X57052381Y-55357142D01*
X57100000Y-55261904D01*
X57147619Y-55214285D01*
X57242857Y-55166666D01*
X57385714Y-55166666D01*
X57480952Y-55214285D01*
X57528571Y-55261904D01*
X57576190Y-55357142D01*
X57576190Y-55738095D01*
X57480952Y-54595238D02*
X57433333Y-54690476D01*
X57385714Y-54738095D01*
X57290476Y-54785714D01*
X57242857Y-54785714D01*
X57147619Y-54738095D01*
X57100000Y-54690476D01*
X57052381Y-54595238D01*
X57052381Y-54404761D01*
X57100000Y-54309523D01*
X57147619Y-54261904D01*
X57242857Y-54214285D01*
X57290476Y-54214285D01*
X57385714Y-54261904D01*
X57433333Y-54309523D01*
X57480952Y-54404761D01*
X57480952Y-54595238D01*
X57528571Y-54690476D01*
X57576190Y-54738095D01*
X57671429Y-54785714D01*
X57861905Y-54785714D01*
X57957143Y-54738095D01*
X58004762Y-54690476D01*
X58052381Y-54595238D01*
X58052381Y-54404761D01*
X58004762Y-54309523D01*
X57957143Y-54261904D01*
X57861905Y-54214285D01*
X57671429Y-54214285D01*
X57576190Y-54261904D01*
X57528571Y-54309523D01*
X57480952Y-54404761D01*
X57552381Y-51166666D02*
X57076190Y-51500000D01*
X57552381Y-51738095D02*
X56552381Y-51738095D01*
X56552381Y-51357142D01*
X56600000Y-51261904D01*
X56647619Y-51214285D01*
X56742857Y-51166666D01*
X56885714Y-51166666D01*
X56980952Y-51214285D01*
X57028571Y-51261904D01*
X57076190Y-51357142D01*
X57076190Y-51738095D01*
X57552381Y-50690476D02*
X57552381Y-50500000D01*
X57504762Y-50404761D01*
X57457143Y-50357142D01*
X57314286Y-50261904D01*
X57123810Y-50214285D01*
X56742857Y-50214285D01*
X56647619Y-50261904D01*
X56600000Y-50309523D01*
X56552381Y-50404761D01*
X56552381Y-50595238D01*
X56600000Y-50690476D01*
X56647619Y-50738095D01*
X56742857Y-50785714D01*
X56980952Y-50785714D01*
X57076190Y-50738095D01*
X57123810Y-50690476D01*
X57171429Y-50595238D01*
X57171429Y-50404761D01*
X57123810Y-50309523D01*
X57076190Y-50261904D01*
X56980952Y-50214285D01*
X57357143Y-63452381D02*
X57023809Y-62976190D01*
X56785714Y-63452381D02*
X56785714Y-62452381D01*
X57166667Y-62452381D01*
X57261905Y-62500000D01*
X57309524Y-62547619D01*
X57357143Y-62642857D01*
X57357143Y-62785714D01*
X57309524Y-62880952D01*
X57261905Y-62928571D01*
X57166667Y-62976190D01*
X56785714Y-62976190D01*
X58309524Y-63452381D02*
X57738095Y-63452381D01*
X58023809Y-63452381D02*
X58023809Y-62452381D01*
X57928571Y-62595238D01*
X57833333Y-62690476D01*
X57738095Y-62738095D01*
X58928571Y-62452381D02*
X59023810Y-62452381D01*
X59119048Y-62500000D01*
X59166667Y-62547619D01*
X59214286Y-62642857D01*
X59261905Y-62833333D01*
X59261905Y-63071429D01*
X59214286Y-63261905D01*
X59166667Y-63357143D01*
X59119048Y-63404762D01*
X59023810Y-63452381D01*
X58928571Y-63452381D01*
X58833333Y-63404762D01*
X58785714Y-63357143D01*
X58738095Y-63261905D01*
X58690476Y-63071429D01*
X58690476Y-62833333D01*
X58738095Y-62642857D01*
X58785714Y-62547619D01*
X58833333Y-62500000D01*
X58928571Y-62452381D01*
X82115933Y-58546671D02*
X82014918Y-58580342D01*
X81880231Y-58580342D01*
X81678200Y-58580342D01*
X81577184Y-58614015D01*
X81509841Y-58681358D01*
X81711871Y-58816045D02*
X81610856Y-58849717D01*
X81476169Y-58849717D01*
X81307811Y-58748702D01*
X81072108Y-58512999D01*
X80971093Y-58344640D01*
X80971093Y-58209953D01*
X81004765Y-58108938D01*
X81139452Y-57974251D01*
X81240467Y-57940579D01*
X81375154Y-57940579D01*
X81543513Y-58041594D01*
X81779215Y-58277297D01*
X81880231Y-58445655D01*
X81880231Y-58580342D01*
X81846559Y-58681357D01*
X81711871Y-58816045D01*
X81644528Y-57603862D02*
X81644528Y-57536518D01*
X81678200Y-57435503D01*
X81846559Y-57267144D01*
X81947574Y-57233472D01*
X82014918Y-57233472D01*
X82115933Y-57267144D01*
X82183276Y-57334487D01*
X82250620Y-57469174D01*
X82250620Y-58277297D01*
X82688353Y-57839564D01*
M02*
